<svg xmlns="http://www.w3.org/2000/svg" width="60.999" height="43.5" viewBox="0 0 60.999 43.5"><path fill="#3DBF86" d="M4.52 42.5A3.524 3.524 0 0 1 1 38.98V4.52A3.524 3.524 0 0 1 4.52 1h51.959A3.525 3.525 0 0 1 60 4.52v34.46c0 1.94-1.579 3.52-3.521 3.52H4.52z"/><path fill="#fff" d="M56.479 2A2.52 2.52 0 0 1 59 4.52v34.46a2.52 2.52 0 0 1-2.521 2.52H4.52A2.52 2.52 0 0 1 2 38.98V4.52A2.52 2.52 0 0 1 4.52 2h51.959m0-2H4.52A4.525 4.525 0 0 0 0 4.52v34.46a4.525 4.525 0 0 0 4.52 4.52h51.959A4.526 4.526 0 0 0 61 38.98V4.52A4.527 4.527 0 0 0 56.479 0z"/><path fill="#fff" d="M18.414 14.167c0-1.172.933-2.103 2.104-2.103s2.128.931 2.128 2.103-.957 2.127-2.128 2.127a2.112 2.112 0 0 1-2.104-2.127zm.263 14.702V17.322h3.683v11.547h-3.683zm4.24-1.503l1.53-2.632c.861.767 2.702 1.553 4.064 1.553 1.1 0 1.554-.311 1.554-.813 0-1.434-6.718.051-6.718-4.638 0-2.032 1.769-3.8 4.949-3.8 1.96 0 3.585.621 4.83 1.53l-1.412 2.604c-.693-.67-2.008-1.266-3.394-1.266-.861 0-1.435.335-1.435.789 0 1.267 6.695-.048 6.695 4.687 0 2.199-1.938 3.775-5.237 3.775-2.079.001-4.206-.691-5.426-1.789zm11.369-13.199h3.681v3.155h2.342v3.179h-2.342v4.233c0 .67.384 1.172 1.005 1.172.406 0 .811-.145.932-.288l.717 2.776c-.453.428-1.363.762-2.726.762-2.344 0-3.608-1.172-3.608-3.395V14.167zm6.885 0h3.682v3.155h2.344v3.179h-2.344v4.233c0 .67.381 1.172 1.004 1.172.404 0 .813-.145.933-.288l.718 2.776c-.455.428-1.364.762-2.727.762-2.342 0-3.609-1.172-3.609-3.395V14.167zM13.648 28.869V12.923h3.682v15.946h-3.682z"/></svg>