<svg xmlns="http://www.w3.org/2000/svg" width="60.999" height="43.5" viewBox="0 0 60.999 43.5"><g><path fill="#3DBF86" d="M4.52 42.5c-1.941 0-3.52-1.579-3.52-3.52v-34.46c0-1.941 1.579-3.52 3.52-3.52h51.959c1.941 0 3.521 1.579 3.521 3.52v34.46c0 1.94-1.579 3.52-3.521 3.52h-51.959z"/><path fill="#fff" d="M56.479 2c1.392 0 2.521 1.128 2.521 2.52v34.46c0 1.392-1.129 2.52-2.521 2.52h-51.959c-1.392 0-2.52-1.128-2.52-2.52v-34.46c0-1.392 1.128-2.52 2.52-2.52h51.959m0-2h-51.959c-2.493 0-4.52 2.028-4.52 4.52v34.46c0 2.492 2.027 4.52 4.52 4.52h51.959c2.492 0 4.521-2.027 4.521-4.52v-34.46c-.001-2.492-2.029-4.52-4.521-4.52z"/></g><path fill="#fff" d="M18.414 14.167c0-1.172.933-2.103 2.104-2.103s2.128.931 2.128 2.103-.957 2.127-2.128 2.127c-1.171 0-2.104-.955-2.104-2.127zm.263 14.702v-11.547h3.683v11.547h-3.683zM22.917 27.366l1.53-2.632c.861.767 2.702 1.553 4.064 1.553 1.1 0 1.554-.311 1.554-.813 0-1.434-6.718.051-6.718-4.638 0-2.032 1.769-3.8 4.949-3.8 1.96 0 3.585.621 4.83 1.53l-1.412 2.604c-.693-.67-2.008-1.266-3.394-1.266-.861 0-1.435.335-1.435.789 0 1.267 6.695-.048 6.695 4.687 0 2.199-1.938 3.775-5.237 3.775-2.079.001-4.206-.691-5.426-1.789zM34.286 14.167h3.681v3.155h2.342v3.179h-2.342v4.233c0 .67.384 1.172 1.005 1.172.406 0 .811-.145.932-.288l.717 2.776c-.453.428-1.363.762-2.726.762-2.344 0-3.608-1.172-3.608-3.395v-11.594zM41.171 14.167h3.682v3.155h2.344v3.179h-2.344v4.233c0 .67.381 1.172 1.004 1.172.404 0 .813-.145.933-.288l.718 2.776c-.455.428-1.364.762-2.727.762-2.342 0-3.609-1.172-3.609-3.395v-11.594zM13.648 28.869v-15.946h3.682v15.946h-3.682z"/></svg>